<?xml version="1.0" standalone="no"?>
<!DOCTYPE svg PUBLIC "-//W3C//DTD SVG 20010904//EN"
 "http://www.w3.org/TR/2001/REC-SVG-20010904/DTD/svg10.dtd">
<svg version="1.0" xmlns="http://www.w3.org/2000/svg"
 width="300.000000pt" height="170.000000pt" viewBox="0 0 300.000000 170.000000"
 preserveAspectRatio="xMidYMid meet">
<metadata>
Created by potrace 1.10, written by Peter Selinger 2001-2011
</metadata>
<g transform="translate(0.000000,170.000000) scale(0.100000,-0.100000)"
fill="#ffffff" stroke="none">
<path d="M4 1673 c-11 -41 10 -142 42 -207 51 -105 196 -241 327 -307 32 -17
101 -42 155 -56 89 -25 112 -27 282 -27 179 0 190 1 344 38 88 20 169 35 181
32 16 -4 26 -20 38 -64 19 -67 55 -112 91 -112 14 0 55 -16 92 -35 36 -19 71
-35 78 -35 7 0 35 -7 63 -15 l50 -15 12 -57 c30 -149 25 -253 -21 -411 -17
-57 -7 -71 77 -105 72 -29 124 -68 272 -208 l91 -87 71 0 c60 1 71 4 76 19 5
15 16 19 51 19 31 0 46 5 50 15 11 27 -6 83 -39 132 -34 51 -59 64 -247 134
-63 24 -96 43 -129 76 l-44 43 6 63 c7 88 87 274 87 204 0 -8 9 -22 20 -32 26
-24 105 -15 177 21 55 27 75 52 88 114 10 47 26 63 118 118 73 43 149 111 173
155 10 17 16 16 105 -13 52 -17 119 -34 150 -37 53 -5 56 -4 82 27 15 17 27
36 27 41 0 28 -94 157 -154 214 -46 42 -44 37 -71 211 -8 54 -40 91 -62 72 -9
-7 -21 -25 -28 -40 l-11 -27 -64 39 c-36 22 -68 40 -72 40 -5 0 -8 -17 -8 -37
0 -48 51 -156 90 -193 l30 -28 -33 -6 c-19 -3 -60 -22 -91 -41 l-58 -35 -37
30 c-20 16 -59 37 -86 46 -56 19 -72 28 -165 95 -136 97 -260 139 -411 139
-113 0 -161 -17 -469 -165 -360 -174 -520 -219 -693 -196 -191 26 -364 114
-487 248 -63 68 -89 122 -90 180 0 49 -16 66 -26 26z"/>
</g>
</svg>
